<svg xmlns="http://www.w3.org/2000/svg" xmlns:xlink="http://www.w3.org/1999/xlink" x="0px" y="0px" viewBox="0 0 112.2 112.2" enable-background="new 0 0 112.2 112.2" xml:space="preserve" id="svg-d412" class="u-svg-content">
    <path d="M82.3,24H29.7C19.3,24,11,32.5,11,43v26.7c0,10.5,8.3,19,18.7,19h52.5c10.3,0,18.7-8.5,18.7-19V43 C101,32.5,92.7,24,82.3,24L82.3,24z M69.7,57.6L45.1,69.5c-0.7,0.2-1.4-0.2-1.4-0.8V44.1c0-0.7,0.8-1.3,1.4-0.8l24.6,12.6 C70.4,56.2,70.4,57.3,69.7,57.6L69.7,57.6z"></path>
</svg>
